<svg id="visual" viewBox="0 0 900 900" width="900" height="900" xmlns="http://www.w3.org/2000/svg" xmlns:xlink="http://www.w3.org/1999/xlink" version="1.1"><g transform="translate(447.53960485293345 412.54472276101944)"><path d="M191.7 -263C251.1 -220.7 303.9 -168.3 337.9 -101C371.9 -33.7 387.1 48.5 366.7 121.6C346.4 194.7 290.4 258.8 223.4 311.8C156.4 364.9 78.2 406.9 -5 413.8C-88.2 420.7 -176.3 392.4 -230.9 335.3C-285.4 278.1 -306.3 192.2 -331 109.2C-355.7 26.2 -384.2 -54 -364.3 -119.3C-344.3 -184.6 -275.9 -235.1 -207.1 -274.4C-138.3 -313.7 -69.2 -341.9 -1.5 -339.8C66.1 -337.7 132.3 -305.4 191.7 -263" fill="#f4b46f"></path></g></svg>